<svg width="64" height="64" viewBox="0 0 64 64" fill="none" xmlns="http://www.w3.org/2000/svg">
<g opacity="0.2">
<path fill-rule="evenodd" clip-rule="evenodd" d="M50.6667 50.6667L47.8133 48.5333C47.3517 48.1871 46.7903 48 46.2133 48C45.6363 48 45.0749 48.1871 44.6133 48.5333L39.12 52.6667L33.6 48.5333C33.1384 48.1871 32.577 48 32 48C31.423 48 30.8616 48.1871 30.4 48.5333L24.88 52.6667L19.3867 48.5333C18.9251 48.1871 18.3637 48 17.7867 48C17.2097 48 16.6483 48.1871 16.1867 48.5333L13.3333 50.6667V10.6667H50.6667V50.6667ZM42.6667 21.3333H26.6667C25.9594 21.3333 25.2811 21.0524 24.781 20.5523C24.281 20.0522 24 19.3739 24 18.6667C24 17.9594 24.281 17.2811 24.781 16.7811C25.2811 16.281 25.9594 16 26.6667 16H42.6667C43.3739 16 44.0522 16.281 44.5523 16.7811C45.0524 17.2811 45.3333 17.9594 45.3333 18.6667C45.3333 19.3739 45.0524 20.0522 44.5523 20.5523C44.0522 21.0524 43.3739 21.3333 42.6667 21.3333ZM42.6667 32H21.3333C20.6261 32 19.9478 31.7191 19.4477 31.219C18.9476 30.7189 18.6667 30.0406 18.6667 29.3333C18.6667 28.6261 18.9476 27.9478 19.4477 27.4477C19.9478 26.9476 20.6261 26.6667 21.3333 26.6667H42.6667C43.3739 26.6667 44.0522 26.9476 44.5523 27.4477C45.0524 27.9478 45.3333 28.6261 45.3333 29.3333C45.3333 30.0406 45.0524 30.7189 44.5523 31.219C44.0522 31.7191 43.3739 32 42.6667 32ZM42.6667 42.6667H21.3333C20.6261 42.6667 19.9478 42.3857 19.4477 41.8856C18.9476 41.3855 18.6667 40.7072 18.6667 40C18.6667 39.2928 18.9476 38.6145 19.4477 38.1144C19.9478 37.6143 20.6261 37.3333 21.3333 37.3333H42.6667C43.3739 37.3333 44.0522 37.6143 44.5523 38.1144C45.0524 38.6145 45.3333 39.2928 45.3333 40C45.3333 40.7072 45.0524 41.3855 44.5523 41.8856C44.0522 42.3857 43.3739 42.6667 42.6667 42.6667Z" fill="#0098FF"/>
<path fill-rule="evenodd" clip-rule="evenodd" d="M10.6667 5.33334H53.3333C54.0406 5.33334 54.7189 5.61429 55.219 6.11438C55.7191 6.61448 56 7.29276 56 8V56C55.9985 56.4925 55.8607 56.9749 55.6018 57.3938C55.3429 57.8127 54.9731 58.1517 54.5333 58.3733C54.0906 58.598 53.5938 58.6945 53.0992 58.6521C52.6045 58.6097 52.1314 58.43 51.7333 58.1333L46.2133 54L40.72 58.1333C40.2584 58.4795 39.697 58.6667 39.12 58.6667C38.543 58.6667 37.9816 58.4795 37.52 58.1333L32 54L26.48 58.1333C26.0184 58.4795 25.457 58.6667 24.88 58.6667C24.303 58.6667 23.7416 58.4795 23.28 58.1333L17.7867 54L12.2667 58.1333C11.8705 58.4305 11.3994 58.6114 10.9061 58.6559C10.4129 58.7004 9.91705 58.6066 9.4741 58.3851C9.03115 58.1637 8.65862 57.8232 8.39826 57.402C8.13791 56.9807 8 56.4952 8 56V8C8 7.29276 8.28095 6.61448 8.78105 6.11438C9.28115 5.61429 9.95942 5.33334 10.6667 5.33334ZM47.8133 48.5333L50.6667 50.6667V10.6667H13.3333V50.6667L16.1867 48.5333C16.6483 48.1871 17.2097 48 17.7867 48C18.3637 48 18.9251 48.1871 19.3867 48.5333L24.88 52.6667L30.4 48.5333C30.8616 48.1871 31.423 48 32 48C32.577 48 33.1384 48.1871 33.6 48.5333L39.12 52.6667L44.6133 48.5333C45.0749 48.1871 45.6363 48 46.2133 48C46.7903 48 47.3517 48.1871 47.8133 48.5333Z" fill="#0098FF"/>
</g>
</svg>
