<svg width="64" height="64" viewBox="0 0 64 64" fill="none" xmlns="http://www.w3.org/2000/svg">
<g opacity="0.2">
<path fill-rule="evenodd" clip-rule="evenodd" d="M32 52.4C26.32 47.0667 16 35.5733 16 26.6667C16 22.4232 17.6857 18.3535 20.6863 15.353C23.6869 12.3524 27.7565 10.6667 32 10.6667C36.2435 10.6667 40.3131 12.3524 43.3137 15.353C46.3143 18.3535 48 22.4232 48 26.6667C48 35.5733 37.68 47.0933 32 52.4ZM26.0739 17.7977C27.828 16.6256 29.8903 16 32 16C34.829 16 37.5421 17.1238 39.5425 19.1242C41.5428 21.1246 42.6667 23.8377 42.6667 26.6667C42.6667 28.7763 42.0411 30.8386 40.869 32.5927C39.6969 34.3469 38.031 35.714 36.0819 36.5214C34.1329 37.3287 31.9882 37.54 29.919 37.1284C27.8499 36.7168 25.9493 35.7009 24.4575 34.2091C22.9658 32.7174 21.9499 30.8168 21.5383 28.7476C21.1267 26.6785 21.3379 24.5338 22.1453 22.5847C22.9526 20.6356 24.3198 18.9697 26.0739 17.7977Z" fill="#0098FF"/>
<path fill-rule="evenodd" clip-rule="evenodd" d="M16.915 11.5817C20.9158 7.58095 26.342 5.33333 32 5.33333C37.6579 5.33333 43.0842 7.58095 47.0849 11.5817C51.0857 15.5825 53.3333 21.0087 53.3333 26.6667C53.3333 41.0667 34.6667 57.3333 33.7333 58.0267C33.2503 58.4398 32.6356 58.6668 32 58.6668C31.3644 58.6668 30.7497 58.4398 30.2667 58.0267L30.2622 58.0228C29.4 57.2756 10.6667 41.0411 10.6667 26.6667C10.6667 21.0087 12.9143 15.5825 16.915 11.5817ZM16 26.6667C16 35.5733 26.32 47.0667 32 52.4C37.68 47.0933 48 35.5733 48 26.6667C48 22.4232 46.3143 18.3535 43.3137 15.353C40.3131 12.3524 36.2435 10.6667 32 10.6667C27.7565 10.6667 23.6869 12.3524 20.6863 15.353C17.6857 18.3535 16 22.4232 16 26.6667Z" fill="#0098FF"/>
</g>
</svg>
