<svg width="24" height="24" viewBox="0 0 24 24" fill="none" xmlns="http://www.w3.org/2000/svg">
<path fill-rule="evenodd" clip-rule="evenodd" d="M10.7196 1.76525C11.4613 1.14718 12.5387 1.14718 13.2804 1.76525L20.9206 8.13207C21.6045 8.70206 22 9.5464 22 10.4367V19C22 20.6568 20.6569 22 19 22H15.5C14.6716 22 14 21.3284 14 20.5V14H10V20.5C10 21.3284 9.32843 22 8.5 22H5C3.34315 22 2 20.6568 2 19V10.4367C2 9.5464 2.39547 8.70206 3.07945 8.13207L10.7196 1.76525ZM19.6402 9.66852L12 3.3017L4.35982 9.66852C4.13182 9.85851 4 10.14 4 10.4367V19C4 19.5523 4.44772 20 5 20H8V14C8 12.8954 8.89543 12 10 12H14C15.1046 12 16 12.8954 16 14V20H19C19.5523 20 20 19.5523 20 19V10.4367C20 10.14 19.8682 9.85851 19.6402 9.66852Z" fill="#0098FF"/>
<path d="M12 3.3017L19.6402 9.66852C19.8682 9.85851 20 10.14 20 10.4367V19C20 19.5523 19.5523 20 19 20H16V14C16 12.8954 15.1046 12 14 12H10C8.89543 12 8 12.8954 8 14V20H5C4.44772 20 4 19.5523 4 19V10.4367C4 10.14 4.13182 9.85851 4.35982 9.66852L12 3.3017Z" fill="#0098FF"/>
</svg>
