<svg width="24" height="24" viewBox="0 0 24 24" fill="none" xmlns="http://www.w3.org/2000/svg">
<path fill-rule="evenodd" clip-rule="evenodd" d="M12 19.65C9.87 17.65 6 13.34 6 10C6 8.4087 6.63214 6.88258 7.75736 5.75736C8.88258 4.63214 10.4087 4 12 4C13.5913 4 15.1174 4.63214 16.2426 5.75736C17.3679 6.88258 18 8.4087 18 10C18 13.34 14.13 17.66 12 19.65ZM9.77772 6.67412C10.4355 6.2346 11.2089 6 12 6C13.0609 6 14.0783 6.42143 14.8284 7.17157C15.5786 7.92172 16 8.93913 16 10C16 10.7911 15.7654 11.5645 15.3259 12.2223C14.8864 12.8801 14.2616 13.3928 13.5307 13.6955C12.7998 13.9983 11.9956 14.0775 11.2196 13.9231C10.4437 13.7688 9.73098 13.3878 9.17157 12.8284C8.61216 12.269 8.2312 11.5563 8.07686 10.7804C7.92252 10.0044 8.00173 9.20017 8.30448 8.46927C8.60723 7.73836 9.11992 7.11365 9.77772 6.67412Z" fill="#0098FF"/>
<path fill-rule="evenodd" clip-rule="evenodd" d="M6.34315 4.34315C7.84344 2.84285 9.87827 2 12 2C14.1217 2 16.1566 2.84285 17.6569 4.34315C19.1571 5.84344 20 7.87827 20 10C20 15.4 13 21.5 12.65 21.76C12.4689 21.9149 12.2384 22.0001 12 22.0001C11.7616 22.0001 11.5311 21.9149 11.35 21.76L11.3483 21.7586C11.025 21.4784 4 15.3904 4 10C4 7.87827 4.84285 5.84344 6.34315 4.34315ZM6 10C6 13.34 9.87 17.65 12 19.65C14.13 17.66 18 13.34 18 10C18 8.4087 17.3679 6.88258 16.2426 5.75736C15.1174 4.63214 13.5913 4 12 4C10.4087 4 8.88258 4.63214 7.75736 5.75736C6.63214 6.88258 6 8.4087 6 10Z" fill="#0098FF"/>
</svg>
