<svg width="14" height="15" viewBox="0 0 14 15" fill="none" xmlns="http://www.w3.org/2000/svg">
<path d="M7 1.5C10.312 1.5 13 4.188 13 7.5C13 10.812 10.312 13.5 7 13.5C3.688 13.5 1 10.812 1 7.5C1 4.188 3.688 1.5 7 1.5ZM7 3.9C5.842 3.9 4.9 4.842 4.9 6C4.9 7.158 5.842 8.1 7 8.1C8.158 8.1 9.1 7.158 9.1 6C9.1 4.842 8.158 3.9 7 3.9ZM7 12.3C8.218 12.3 9.658 11.808 10.684 10.572C9.63304 9.74743 8.33583 9.29928 7 9.29928C5.66417 9.29928 4.36696 9.74743 3.316 10.572C4.342 11.808 5.782 12.3 7 12.3Z" fill="#C7C7C7"/>
<rect x="0.486301" y="-0.486301" width="12.9726" height="12.9726" rx="6.4863" transform="matrix(-1 0 0 1 13.9726 1.5)" stroke="#BCBCBC" stroke-width="0.972603"/>
</svg>
