<svg width="19" height="24" viewBox="0 0 19 24" fill="none" xmlns="http://www.w3.org/2000/svg">
<g clip-path="url(#clip0_1832_21204)">
<path d="M17.5395 15.1416C16.3729 15.1287 15.2777 14.6588 14.4513 13.8145C13.6249 12.9703 13.1648 11.8519 13.1522 10.6598C13.1442 9.88957 12.5845 9.21941 11.8322 9.17089C11.011 9.11761 10.3288 9.78235 10.3288 10.61C10.3288 11.8207 9.86739 12.9588 9.02933 13.8145C8.2029 14.6588 7.10807 15.1287 5.94117 15.1416C5.18714 15.1498 4.53111 15.7215 4.48361 16.4901C4.43146 17.3289 5.08218 18.0259 5.89234 18.0259C7.07751 18.0259 8.1916 18.4972 9.02933 19.3533C9.85576 20.1975 10.3158 21.3159 10.3284 22.508C10.3364 23.2783 10.8961 23.9484 11.6485 23.9969C12.4696 24.0502 13.1519 23.3855 13.1519 22.5579C13.1519 21.3472 13.6132 20.2091 14.4513 19.3533C15.2894 18.4972 16.4035 18.0259 17.5883 18.0259C18.3985 18.0259 19.0492 17.3289 18.997 16.4901C18.9495 15.7215 18.2932 15.1501 17.5395 15.1416Z" fill="url(#paint0_linear_1832_21204)"/>
<path d="M8.92269 9.3778C8.92269 11.8949 6.92537 13.9353 4.46135 13.9353C1.99733 13.9353 0 11.8946 0 9.3778C0 7.71512 1.9465 3.45492 3.26787 0.753563C3.75948 -0.251513 5.16289 -0.251513 5.65483 0.753563C6.97652 3.45458 8.92269 7.71512 8.92269 9.37747V9.3778Z" fill="url(#paint1_linear_1832_21204)"/>
</g>
<defs>
<linearGradient id="paint0_linear_1832_21204" x1="11.7405" y1="21.0913" x2="11.7405" y2="2.33182" gradientUnits="userSpaceOnUse">
<stop stop-color="#0098FF"/>
<stop offset="1" stop-color="#9CE5FF"/>
</linearGradient>
<linearGradient id="paint1_linear_1832_21204" x1="4.46135" y1="21.0912" x2="4.46135" y2="2.33176" gradientUnits="userSpaceOnUse">
<stop stop-color="#0098FF"/>
<stop offset="1" stop-color="#9CE5FF"/>
</linearGradient>
<clipPath id="clip0_1832_21204">
<rect width="19" height="24" fill="white"/>
</clipPath>
</defs>
</svg>
