<svg width="138" height="33" viewBox="0 0 138 33" fill="none" xmlns="http://www.w3.org/2000/svg">
<path d="M9.50305 5.69162V3.75229C9.50305 1.41046 10.3134 0.276132 12.7812 0.276132C14.8071 0.276132 15.6543 1.66659 15.8384 4.74025C16.0963 8.76528 16.1331 12.4976 15.8384 16.0469C15.7648 16.9983 15.5806 17.8033 15.3228 18.4985C15.6911 18.4985 16.0594 18.4985 16.5014 18.4985C16.9434 18.4985 17.3854 18.4985 17.7538 18.4985C17.4959 17.8033 17.2749 16.9983 17.2013 16.0469C16.9066 12.4976 16.7961 8.76528 17.2013 4.74025C17.4959 1.44705 18.1958 0.276132 20.4426 0.276132C22.9841 0.276132 23.6103 1.63 23.6103 3.75229V5.69162C24.0891 5.50866 25.0836 5.50866 25.5625 5.69162V3.75229C25.5625 1.41046 26.4096 0.276132 28.8775 0.276132C31.0507 0.276132 31.861 1.66659 32.1188 4.74025C32.3767 8.76528 32.4135 12.4976 32.1188 16.0469C31.8242 18.8644 30.7192 20.4378 29.2827 20.9867C27.5147 21.7185 24.9363 21.9381 22.6895 21.6454C22.6895 21.8649 22.7263 22.1576 22.7263 22.4138C22.7263 22.6333 22.7263 22.8529 22.7263 23.0724C24.6416 22.9626 26.557 22.8163 28.546 22.6333C31.3822 22.3406 33.0028 24.4263 33.0028 26.9877C33.0028 30.1345 31.3822 31.7445 28.5092 32.0372C20.2953 32.8422 12.6707 32.8422 4.45686 32.0372C1.65751 31.7445 0 30.1345 0 26.9877C0 24.4263 1.65751 22.3406 4.45686 22.6333C6.40904 22.8163 8.32438 22.9626 10.2397 23.0724C10.2397 22.8529 10.2397 22.6333 10.2397 22.4138C10.2397 22.1576 10.2766 21.9015 10.2766 21.6819C8.06654 21.9381 5.56186 21.7185 3.83069 20.9867C2.35735 20.4378 1.14184 18.8644 0.957672 16.0469C0.663004 12.4976 0.552503 8.43596 0.957672 4.74025C1.28917 1.44705 1.98901 0.276132 4.42002 0.276132C6.88787 0.276132 7.55088 1.63 7.55088 3.75229V5.69162C8.06654 5.50866 8.95055 5.50866 9.50305 5.69162ZM22.6158 12.3878C23.8681 12.3878 25.1205 12.7171 26.0045 13.2294C26.6306 13.5953 27.3305 12.6073 26.7043 12.0585C25.673 11.2901 23.905 11.0339 22.8 11.1437C22.0633 11.1803 22.0633 12.3878 22.6158 12.3878ZM6.55637 12.3878C7.80871 12.3878 9.02422 12.7171 9.94506 13.2294C10.5344 13.5953 11.2711 12.6073 10.6081 12.0585C9.65039 11.2901 7.88238 11.0339 6.7037 11.1437C6.00387 11.1803 6.00387 12.3878 6.55637 12.3878Z" fill="#0098FF"/>
<path d="M48.5906 6.97231C47.5225 7.19185 46.8226 7.26504 46.0491 7.52118C45.5703 7.66754 45.7544 8.47255 46.3806 8.32618C51.4636 7.26504 57.9463 6.67958 60.6352 6.67958C63.9502 6.67958 66.1971 7.44799 66.5654 9.64346C66.8232 11.2535 65.9024 12.6439 62.5874 12.9733C56.7677 13.5587 48.6275 13.4855 44.3179 13.1928C39.6032 12.8269 37.3564 11.9853 36.6197 10.1557C35.8462 8.07004 35.8462 5.17934 36.6197 3.09365C37.3564 1.2275 39.2349 0.349313 42.3289 0.129767C45.0914 -0.0165978 58.241 -0.0531885 61.0035 0.0931742C64.0607 0.239539 65.7919 0.934771 65.7919 2.39842C65.7919 3.86206 64.2449 4.70366 61.0035 4.70366H48.296C48.6275 5.39889 48.738 6.31367 48.5906 6.97231ZM34.9991 16.3396C34.9991 14.9492 36.2882 13.7783 38.3877 13.9246C46.2701 14.5101 56.3993 14.4735 64.5764 13.9246C66.7127 13.7783 68.0019 14.9492 68.0019 16.3396C68.0019 17.9862 66.7127 18.8644 64.5396 19.0108C56.3993 19.5963 46.2701 19.5963 38.3877 19.0108C36.2882 18.8278 34.9991 17.9862 34.9991 16.3396ZM42.5499 27.7561C39.0507 27.7195 36.5829 26.8413 36.3987 24.8654C36.2146 22.8895 39.1612 21.6088 43.1024 21.0599C48.4065 20.3647 54.705 19.8158 59.6775 20.6574C63.1767 21.2794 65.092 22.4504 65.9024 23.6579C67.1179 25.4142 66.7496 28.7074 65.3499 30.4638C64.0607 32.0372 61.6665 32.952 57.8727 32.9886C53.8578 33.135 51.39 31.8543 50.9848 30.0979C50.4691 28.1586 51.4268 25.8533 53.0475 24.4629C53.3422 24.2067 52.6423 24.0238 52.3476 24.2799C49.5115 26.3656 46.3806 27.8293 42.5499 27.7561Z" fill="#0098FF"/>
<path d="M79.5012 5.69162V3.75229C79.5012 1.41046 80.3115 0.276132 82.7793 0.276132C84.8052 0.276132 85.6524 1.66659 85.8365 4.74025C86.0944 8.76528 86.1312 12.4976 85.8365 16.0469C85.7629 16.9983 85.5787 17.8033 85.3209 18.4985C85.6892 18.4985 86.0575 18.4985 86.4995 18.4985C86.9415 18.4985 87.3835 18.4985 87.7519 18.4985C87.494 17.8033 87.273 16.9983 87.1994 16.0469C86.9047 12.4976 86.7942 8.76528 87.1994 4.74025C87.494 1.44705 88.1939 0.276132 90.4407 0.276132C92.9822 0.276132 93.6084 1.63 93.6084 3.75229V5.69162C94.0872 5.50866 95.0817 5.50866 95.5606 5.69162V3.75229C95.5606 1.41046 96.4078 0.276132 98.8756 0.276132C101.049 0.276132 101.859 1.66659 102.117 4.74025C102.375 8.76528 102.412 12.4976 102.117 16.0469C101.822 18.8644 100.717 20.4378 99.2808 20.9867C97.5128 21.7185 94.9344 21.9381 92.6876 21.6454C92.6876 21.8649 92.7244 22.1576 92.7244 22.4138C92.7244 22.6333 92.7244 22.8529 92.7244 23.0724C94.6397 22.9626 96.5551 22.8163 98.5441 22.6333C101.38 22.3406 103.001 24.4263 103.001 26.9877C103.001 30.1345 101.38 31.7445 98.5073 32.0372C90.2934 32.8422 82.6688 32.8422 74.455 32.0372C71.6556 31.7445 69.9981 30.1345 69.9981 26.9877C69.9981 24.4263 71.6556 22.3406 74.455 22.6333C76.4071 22.8163 78.3225 22.9626 80.2378 23.0724C80.2378 22.8529 80.2378 22.6333 80.2378 22.4138C80.2378 22.1576 80.2747 21.9015 80.2747 21.6819C78.0647 21.9381 75.56 21.7185 73.8288 20.9867C72.3555 20.4378 71.1399 18.8644 70.9558 16.0469C70.6611 12.4976 70.5506 8.43596 70.9558 4.74025C71.2873 1.44705 71.9871 0.276132 74.4181 0.276132C76.886 0.276132 77.549 1.63 77.549 3.75229V5.69162C78.0646 5.50866 78.9486 5.50866 79.5012 5.69162ZM92.6139 12.3878C93.8662 12.3878 95.1186 12.7171 96.0026 13.2294C96.6288 13.5953 97.3286 12.6073 96.7024 12.0585C95.6711 11.2901 93.9031 11.0339 92.7981 11.1437C92.0614 11.1803 92.0614 12.3878 92.6139 12.3878ZM76.5545 12.3878C77.8068 12.3878 79.0223 12.7171 79.9432 13.2294C80.5325 13.5953 81.2692 12.6073 80.6062 12.0585C79.6485 11.2901 77.8805 11.0339 76.7018 11.1437C76.002 11.1803 76.002 12.3878 76.5545 12.3878Z" fill="#0098FF"/>
<path d="M118.589 6.97231C117.521 7.19185 116.821 7.26504 116.047 7.52118C115.568 7.66754 115.753 8.47255 116.379 8.32618C121.462 7.26504 127.944 6.67958 130.633 6.67958C133.948 6.67958 136.195 7.44799 136.563 9.64346C136.821 11.2535 135.9 12.6439 132.585 12.9733C126.766 13.5587 118.626 13.4855 114.316 13.1928C109.601 12.8269 107.354 11.9853 106.618 10.1557C105.844 8.07004 105.844 5.17934 106.618 3.09365C107.354 1.2275 109.233 0.349313 112.327 0.129767C115.09 -0.0165978 128.239 -0.0531885 131.002 0.0931742C134.059 0.239539 135.79 0.934771 135.79 2.39842C135.79 3.86206 134.243 4.70366 131.002 4.70366H118.294C118.626 5.39889 118.736 6.31367 118.589 6.97231ZM104.997 16.3396C104.997 14.9492 106.286 13.7783 108.386 13.9246C116.268 14.5101 126.397 14.4735 134.574 13.9246C136.711 13.7783 138 14.9492 138 16.3396C138 17.9862 136.711 18.8644 134.538 19.0108C126.397 19.5963 116.268 19.5963 108.386 19.0108C106.286 18.8278 104.997 17.9862 104.997 16.3396ZM112.548 27.7561C109.049 27.7195 106.581 26.8413 106.397 24.8654C106.213 22.8895 109.159 21.6088 113.101 21.0599C118.405 20.3647 124.703 19.8158 129.676 20.6574C133.175 21.2794 135.09 22.4504 135.9 23.6579C137.116 25.4142 136.748 28.7074 135.348 30.4638C134.059 32.0372 131.665 32.952 127.871 32.9886C123.856 33.135 121.388 31.8543 120.983 30.0979C120.467 28.1586 121.425 25.8533 123.046 24.4629C123.34 24.2067 122.64 24.0238 122.346 24.2799C119.51 26.3656 116.379 27.8293 112.548 27.7561Z" fill="#0098FF"/>
</svg>
