<svg width="24" height="25" viewBox="0 0 24 25" fill="none" xmlns="http://www.w3.org/2000/svg">
<path d="M12 2.78635C9.87827 2.78635 7.84344 3.6292 6.34315 5.12949C4.84285 6.62978 4 8.66461 4 10.7863C4 16.1863 11.05 22.2863 11.35 22.5463C11.5311 22.7013 11.7616 22.7864 12 22.7864C12.2384 22.7864 12.4689 22.7013 12.65 22.5463C13 22.2863 20 16.1863 20 10.7863C20 8.66461 19.1571 6.62978 17.6569 5.12949C16.1566 3.6292 14.1217 2.78635 12 2.78635ZM12 20.4363C9.87 18.4363 6 14.1263 6 10.7863C6 9.19505 6.63214 7.66892 7.75736 6.54371C8.88258 5.41849 10.4087 4.78635 12 4.78635C13.5913 4.78635 15.1174 5.41849 16.2426 6.54371C17.3679 7.66892 18 9.19505 18 10.7863C18 14.1263 14.13 18.4463 12 20.4363ZM12 6.78635C11.2089 6.78635 10.4355 7.02094 9.77772 7.46047C9.11992 7.89999 8.60723 8.52471 8.30448 9.25561C8.00173 9.98652 7.92252 10.7908 8.07686 11.5667C8.2312 12.3426 8.61216 13.0554 9.17157 13.6148C9.73098 14.1742 10.4437 14.5551 11.2196 14.7095C11.9956 14.8638 12.7998 14.7846 13.5307 14.4819C14.2616 14.1791 14.8864 13.6664 15.3259 13.0086C15.7654 12.3508 16 11.5775 16 10.7863C16 9.72548 15.5786 8.70806 14.8284 7.95792C14.0783 7.20777 13.0609 6.78635 12 6.78635ZM12 12.7863C11.6044 12.7863 11.2178 12.669 10.8889 12.4493C10.56 12.2295 10.3036 11.9172 10.1522 11.5517C10.0009 11.1863 9.96126 10.7841 10.0384 10.3962C10.1156 10.0082 10.3061 9.65184 10.5858 9.37213C10.8655 9.09243 11.2219 8.90195 11.6098 8.82478C11.9978 8.74761 12.3999 8.78721 12.7654 8.93859C13.1308 9.08996 13.4432 9.34631 13.6629 9.67521C13.8827 10.0041 14 10.3908 14 10.7863C14 11.3168 13.7893 11.8255 13.4142 12.2006C13.0391 12.5756 12.5304 12.7863 12 12.7863Z" fill="#0098FF"/>
</svg>
